<svg width="19" height="37" viewBox="0 0 19 37" fill="none" xmlns="http://www.w3.org/2000/svg">
<path fill-rule="evenodd" clip-rule="evenodd" d="M10.1806 7.18633L9.74565 7.35336L9.31961 7.52617L9.10908 7.62388L8.91386 7.72401L8.72671 7.83415L8.63716 7.89431L8.55889 7.95179L8.41246 8.06837L8.28663 8.18828L8.16869 8.31809L8.11383 8.38792L8.07019 8.45534L8.20069 8.58947L8.32608 8.72281L8.44638 8.85533L8.56157 8.98705L8.66143 9.11643L8.78483 9.23627L8.91555 9.34861L9.06477 9.45078L9.14703 9.50307L9.18859 9.5271L9.23749 9.54356L9.32508 9.57486L9.42606 9.59519L9.51897 9.6055L9.61498 9.60321L9.71321 9.59254L9.81974 9.57008L9.98878 9.5313L10.168 9.49414L10.3452 9.46537L10.5253 9.4458L10.7225 9.44214L10.8267 9.44978L10.9351 9.46254L11.1228 9.49657L11.3199 9.5147L11.5089 9.52274L11.7112 9.51978L11.9035 9.51524L12.0997 9.51569L12.2949 9.52033L12.4941 9.52999L12.8873 9.57028L13.2885 9.62058L13.5814 9.65814L13.5765 9.63554L13.5778 9.60955L13.5753 9.55667L13.5656 9.51147L13.5507 9.46546L13.5235 9.42632L13.4912 9.38628L13.481 9.38467L13.4759 9.38386L13.4769 9.37967L13.4688 9.36956L13.4526 9.34963L13.409 9.31209L13.1572 9.15441L12.9147 8.98075L12.731 8.84693L12.5659 8.70288L12.4193 8.54873L12.291 8.38447L12.1827 8.22746L12.0924 8.06038L12.0123 7.89491L11.9517 7.71515L11.9121 7.59974L11.895 7.47907L11.877 7.23609L11.8752 7.0961L11.8859 6.94935L11.9187 6.65327L12.0258 5.95863L12.1577 5.25026L12.1809 5.09674L12.1988 4.9424L12.2116 4.78724L12.2155 4.70926L12.2255 4.6279L12.2307 4.31437L12.2156 3.99754L12.1685 3.70195L12.1113 3.40474L12.0365 3.1135L11.9465 2.81985L11.8639 2.60159L11.7751 2.38672L11.722 2.28219L11.675 2.17444L11.5698 1.96135L11.4411 1.75754L11.3244 1.56892L11.1967 1.361L11.1017 1.14952L11.0416 1.13565L11.011 1.13081L10.9957 1.12839L10.9865 1.12258L10.8752 1.10055L10.7608 1.09129L10.6454 1.08606L10.588 1.20796L10.554 1.32056L10.5315 1.43052L10.5273 1.53028L10.5325 1.6358L10.556 1.73128L10.5909 1.82412L10.6493 1.90757L10.7046 2.00362L10.766 2.09628L10.8735 2.2791L10.9636 2.46797L11.0486 2.65604L11.111 2.84937L11.1397 2.94558L11.1745 3.03841L11.197 3.13801L11.2256 3.23431L11.2819 3.43086L11.3617 3.82768L11.4262 4.22199L11.4334 4.42405L11.4354 4.62521L11.4252 4.72837L11.4175 4.77955L11.416 4.82734L11.4007 4.92971L11.3865 5.02788L11.3343 5.23348L11.2883 5.43578L11.1953 5.84459L11.1329 6.04866L11.0672 6.24365L10.9813 6.43529L10.8876 6.61695L10.8262 6.71203L10.7569 6.79713L10.6773 6.88069L10.601 6.9515L10.5031 7.02336L10.4085 7.08271L10.2934 7.13875L10.1806 7.18633ZM9.68302 9.0855L9.55865 9.05275L9.50465 9.03549L9.46809 9.01224L9.40624 8.96318L9.38605 8.93816L9.3783 8.90637L9.36662 8.84777L9.36887 8.81756L9.38876 8.78141L9.43961 8.70649L9.51809 8.6272L9.65825 8.51401L9.72939 8.46412L9.81159 8.41162L9.97607 8.32846L10.0591 8.29356L10.1526 8.2603L10.2387 8.23462L10.3288 8.21394L10.507 8.18097L10.6839 8.17408L10.7688 8.17439L10.8627 8.18051L10.8923 8.18954L10.9004 8.19955L10.9135 8.21045L10.9144 8.22805L10.9203 8.24637L10.9189 8.29425L10.8936 8.37312L10.8641 8.44705L10.8308 8.51601L10.7882 8.57923L10.7342 8.64473L10.6764 8.70546L10.6094 8.76036L10.5383 8.81025L10.5259 8.81703L10.5198 8.8205L10.5063 8.83139L10.4868 8.84577L10.4733 8.85674L10.4477 8.87452L10.4342 8.8854L10.4269 8.89307L10.395 8.91423L10.3693 8.93199L10.3053 8.9961L10.2713 9.02565L10.2394 9.0468L10.1614 9.08251L10.1203 9.09784L10.0865 9.1056L9.99227 9.12127L9.94315 9.12661L9.89616 9.12355L9.78794 9.11082L9.73182 9.10195L9.68302 9.0855Z" fill="#4CB52B"/>
<path fill-rule="evenodd" clip-rule="evenodd" d="M9.51795 8.62717L9.43946 8.70646L9.38862 8.78138L9.36883 8.81754L9.36658 8.84775L9.37825 8.90635L9.38601 8.93814L9.4062 8.96316L9.46805 9.01223L9.50471 9.03549L9.55861 9.05274L9.68298 9.08549L9.73187 9.10195L9.788 9.11082L9.89622 9.12355L9.94321 9.12661L9.99232 9.12127L10.0865 9.1056L10.1203 9.09784L10.1614 9.0825L10.2394 9.0468L10.2713 9.02565L10.3054 8.9961L10.3694 8.93199L10.3951 8.91423L10.427 8.89307L10.4342 8.88548L10.4477 8.87452L10.4734 8.85674L10.4868 8.84576L10.5063 8.83139L10.5197 8.8204L10.5259 8.81701L10.5382 8.81023L10.6094 8.76035L10.6764 8.70545L10.7341 8.64471L10.788 8.57901L10.8306 8.51588L10.8639 8.44692L10.8934 8.37299L10.9186 8.29402L10.9201 8.24623L10.9142 8.22783L10.9133 8.21023L10.9001 8.19942L10.8921 8.18941L10.8626 8.18039L10.7685 8.17426L10.6837 8.17395L10.5068 8.18092L10.3286 8.21389L10.2386 8.23459L10.1524 8.26027L10.059 8.29353L9.97593 8.32843L9.81144 8.41159L9.72924 8.46409L9.65811 8.51397L9.51795 8.62717Z" fill="#275B15"/>
<path fill-rule="evenodd" clip-rule="evenodd" d="M8.00709 8.55868L7.96422 8.64359L7.95016 8.71996L8.06682 8.90867L8.12929 8.99713L8.20517 9.07461L8.36415 9.22198L8.55003 9.34741L8.61072 9.40066L8.67257 9.44973L8.69681 9.47975L8.69987 9.48897L8.70891 9.49476L8.72719 9.50638L8.77778 9.55804L8.81092 9.61567L8.84015 9.66831L8.84089 9.68589L8.84789 9.7001L8.86191 9.72851L8.86275 9.74611L8.86987 9.76033L8.88379 9.78872L8.88548 9.82392L8.88632 9.84152L8.89333 9.85572L8.89777 9.92191L8.89604 9.9915L8.89432 10.0611L8.88834 10.1475L8.91115 10.2253L8.95632 10.2979L9.02411 10.3654L9.07066 10.4121L9.12443 10.4511L9.22711 10.5066L9.27494 10.5273L9.33 10.5404L9.43526 10.5439L9.53454 10.529L9.58185 10.5103L9.6362 10.484L9.68044 10.456L9.73296 10.4163L9.78039 10.3758L9.83611 10.3235L9.96842 10.1785L10.0285 10.1094L10.0584 10.0748L10.0946 10.0368L10.2136 9.90281L10.2373 9.87163L10.2673 9.83707L10.3274 9.76798L10.5099 9.80119L10.6914 9.83861L10.8596 9.88701L11.0279 9.93543L11.1611 9.99577L11.2272 10.0281L11.2995 10.057L11.3707 10.09L11.4502 10.1113L11.5227 10.1184L11.5595 10.1199L11.6035 10.1137L11.6598 10.1008L11.7234 10.0803L11.784 10.0506L11.8148 10.0336L11.8529 10.0091L11.9497 9.94139L12.0535 9.88793L12.1581 9.85207L12.276 9.82704L12.3884 9.82297L12.5089 9.82892L12.6303 9.85247L12.7639 9.89105L12.8778 9.94397L12.8858 9.95397L12.8848 9.95817L12.8899 9.95898L12.9001 9.96059L12.9287 9.97384L12.9845 10.0045L13.028 10.042L13.0493 10.0628L13.0767 10.0802L13.1607 10.1677L13.204 10.227L13.2618 10.271L13.3219 10.3067L13.3922 10.3222L13.4647 10.3293L13.5465 10.3204L13.6356 10.3039L13.7341 10.2714L13.77 10.2553L13.8091 10.2265L13.8381 10.1962L13.8702 10.1532L13.9346 10.0455L14.0195 9.94102L14.1237 9.84397L14.2441 9.76694L14.3704 9.70831L14.4391 9.6886L14.5192 9.66633L14.5795 9.65839L14.646 9.64707L14.7759 9.63704L14.8924 9.63799L15.017 9.64894L15.1273 9.6751L15.1811 9.69235L15.2413 9.70622L15.3473 9.74916L15.399 9.7748L15.456 9.80127L15.5036 9.84372L15.541 9.88456L15.5195 9.80257L15.5083 9.78334L15.5036 9.76076L15.4937 9.71554L15.4608 9.63611L15.4239 9.5517L15.3745 9.47404L15.3201 9.39558L15.2868 9.35977L15.2595 9.32052L15.1949 9.24046L14.8926 8.92635L14.7397 8.77557L14.593 8.62142L14.5048 8.55072L14.4229 8.47665L14.2475 8.33106L14.0587 8.19643L13.9581 8.13252L13.8638 8.06523L13.757 8.00469L13.6627 7.93738L13.4873 7.79179L13.3243 7.63941L13.2496 7.55775L13.187 7.46927L13.0519 7.29076L12.9505 7.10445L12.8666 6.91218L12.8103 6.71555L12.6156 5.95567L12.5696 5.76065L12.546 5.56046L12.544 5.3593L12.5696 5.15377L12.593 4.95664L12.5946 4.90887L12.6022 4.85768L12.6125 4.75451L12.6155 4.55416L12.6084 4.35219L12.5696 3.94003L12.5421 3.52528L12.5248 3.3217L12.4993 3.10811L12.4616 2.90131L12.4259 2.68611L12.3911 2.59328L12.3712 2.54648L12.363 2.53646L12.359 2.53145L12.3611 2.52306L12.3574 2.49627L12.3123 2.40182L12.2724 2.3082L12.2151 2.22055L12.1638 2.12949L12.1003 2.04524L12.0377 1.95676L11.8932 1.79421L11.7425 1.63505L11.6605 1.56097L11.5846 1.48349L11.4256 1.33612L11.3444 1.27963L11.3028 1.25558L11.2673 1.22814L11.1829 1.18424L11.1391 1.16859L11.1015 1.14954L11.1964 1.36102L11.3241 1.56894L11.4408 1.75765L11.5696 1.96137L11.6747 2.17446L11.7218 2.28231L11.7749 2.38676L11.8636 2.60161L11.9462 2.81987L12.0362 3.11352L12.111 3.40475L12.1683 3.70197L12.2155 3.99758L12.2305 4.31432L12.2253 4.62785L12.2153 4.70922L12.2114 4.78719L12.1986 4.94235L12.1807 5.09669L12.1577 5.25023L12.0258 5.95851L11.9186 6.65323L11.886 6.94933L11.8753 7.09609L11.8769 7.23606L11.8949 7.47903L11.9122 7.59964L11.9518 7.71505L12.0123 7.89489L12.0924 8.06036L12.1827 8.22744L12.2915 8.38435L12.4197 8.54867L12.5663 8.70283L12.7315 8.84681L12.9152 8.98063L13.1577 9.15429L13.4095 9.31197L13.4531 9.34942L13.4693 9.36944L13.4774 9.37946L13.4764 9.38366L13.4814 9.38445L13.4916 9.38606L13.5239 9.42609L13.5511 9.46532L13.566 9.51133L13.5757 9.55653L13.5784 9.60934L13.577 9.63532L13.5818 9.65792L13.2889 9.62036L12.8877 9.57006L12.4946 9.52977L12.2953 9.52011L12.1002 9.51547L11.904 9.51503L11.7117 9.51957L11.5093 9.52251L11.3204 9.51449L11.1232 9.49643L10.9356 9.46241L10.8272 9.44966L10.7231 9.44193L10.5258 9.44568L10.3457 9.46525L10.1685 9.49402L9.9894 9.5312L9.82034 9.56997L9.71371 9.59242L9.61549 9.60309L9.51947 9.60539L9.42647 9.59505L9.32549 9.57473L9.2379 9.54342L9.18899 9.52696L9.14744 9.50293L9.06507 9.45062L8.91585 9.34846L8.78513 9.23611L8.66175 9.1162L8.56186 8.9869L8.44658 8.85516L8.32628 8.72264L8.20089 8.58931L8.07039 8.45517L8.00709 8.55868Z" fill="#275B15"/>
<path fill-rule="evenodd" clip-rule="evenodd" d="M6.12415 10.479L6.25303 10.3684L6.38915 10.2502L6.52134 10.127L6.66172 9.99197L6.7401 9.91266L6.83293 9.84001L6.9297 9.77235L7.0355 9.71048L7.13928 9.65703L7.25326 9.60518L7.37022 9.56254L7.49748 9.52152L7.61018 9.49567L7.72681 9.47481L7.84142 9.46236L7.96006 9.45491L8.07658 9.45586L8.19713 9.46181L8.32066 9.47696L8.44418 9.49212L8.77776 9.55793L8.72717 9.50627L8.70889 9.49465L8.69985 9.48886L8.69678 9.47964L8.67255 9.44962L8.6107 9.40055L8.55001 9.3473L8.36413 9.22187L8.20514 9.0745L8.12927 8.99702L8.06679 8.90856L7.95014 8.71985L7.74174 8.80917L7.54449 8.91771L7.44358 8.98035L7.34682 9.04802L7.16136 9.19335L6.96951 9.36387L6.78871 9.5536L6.69874 9.65726L6.6077 9.76513L6.43879 9.99167L6.27073 10.2358L6.12415 10.479Z" fill="#95001B"/>
<path fill-rule="evenodd" clip-rule="evenodd" d="M6.6617 9.99213L6.52132 10.1271L6.38914 10.2503L6.25302 10.3685L6.12413 10.4791L5.99817 10.7037L5.93775 10.8164L5.88859 10.9265L5.79325 11.156L5.71025 11.3786L5.63532 11.6113L5.57569 11.8463L5.52628 12.083L5.4943 12.3137L5.46529 12.5537L5.45159 12.796L5.4481 13.0399L5.46501 13.2871L5.46986 13.4145L5.48597 13.5393L5.52329 13.7897L5.57083 14.0417L5.63877 14.2969L5.77549 14.825L5.91839 15.3497L6.04895 15.8811L6.18057 16.4084L6.29986 16.9424L6.42022 17.4722L6.5344 18.0055L6.55869 18.1403L6.58894 18.2717L6.64965 18.5345L6.85049 19.6054L6.94203 20.1438L6.98531 20.4126L7.03475 20.678L7.07185 20.9501L7.11513 21.2189L7.19657 21.7557L7.26568 22.2993L7.34095 22.8395L7.33392 23.1396L7.32776 23.4356L7.31255 23.7257L7.28821 24.01L7.25269 24.2969L7.209 24.5738L7.155 24.849L7.09197 25.1185L7.10173 25.1637L7.11362 25.2005L7.06039 25.4104L6.00925 29.785L4.95089 34.1671L4.92343 34.2544L4.90937 34.3308L4.89743 34.3988L4.904 34.4566L4.91164 34.5102L4.93267 34.5528L4.95583 34.587L4.99856 34.6069L5.03619 34.6259L5.09338 34.6306L5.1527 34.6269L5.22436 34.6164L5.29814 34.5974L5.38533 34.5676L5.47985 34.5301L5.58756 34.4816L5.96615 34.1398L6.34283 33.7845L6.71451 33.4285L7.08408 33.059L7.51182 32.6071L7.72378 32.3786L7.94287 32.1425L8.15058 31.909L8.36052 31.6672L8.77638 31.1784L9.05695 30.8254L9.33456 30.4632L9.60706 30.1003L9.87552 29.7323L10.1339 29.3627L10.3881 28.9881L10.632 28.6119L10.8721 28.2307L11.0967 27.847L11.3173 27.4584L11.5328 27.0689L11.7455 26.6703L11.9467 26.2742L12.1388 25.8724L12.3269 25.4655L12.511 25.0536L12.8432 24.246L13.0088 23.8443L13.0916 23.6434L13.1805 23.4392L13.5065 22.635L13.8377 21.8316L13.8204 21.628L13.8306 21.42L13.8511 21.2137L13.8972 21.0114L13.9819 20.6144L14.0841 20.2114L14.2592 19.4794L14.4269 18.755L14.4521 18.593L14.4794 18.4227L14.4893 18.2584L14.4961 18.0848L14.4916 17.7261L14.5157 17.3588L14.5384 17.0393L14.5559 16.7189L14.5577 16.5446L14.5535 16.4566L14.5554 16.3652L14.5385 16.0133L14.5264 15.8105L14.5406 15.6076L14.5702 15.407L14.6213 15.2055L14.661 15.0284L14.7006 14.8513L14.73 14.6726L14.7304 14.629L14.7274 14.6198L14.7306 14.6072L14.737 14.582L14.7502 14.4881L14.7683 14.1242L14.8078 13.7593L14.8313 13.5622L14.8353 13.4624L14.8455 13.3592L14.8538 13.1597L14.8567 12.9593L14.8486 12.7616L14.8617 12.5628L14.8903 12.3665L14.9363 12.1642L14.9649 11.9678L14.968 11.8723V11.7675L14.9556 11.6695L14.9383 11.5707L14.9157 11.4711L14.8881 11.3707L14.8032 11.1826L14.7182 10.9945L14.667 10.9035L14.6219 10.8091L14.5907 10.7648L14.5656 10.7172L14.5156 10.622L14.453 10.5335L14.4218 10.4893L14.3967 10.4416L14.3332 10.3574L14.2758 10.2697L14.1476 10.1054L14.0195 9.94107L13.9346 10.0455L13.8701 10.1532L13.838 10.1962L13.8091 10.2265L13.77 10.2553L13.734 10.2714L13.6356 10.3039L13.5465 10.3204L13.4646 10.3293L13.3921 10.3222L13.3219 10.3067L13.2618 10.271L13.204 10.227L13.1606 10.1677L13.0767 10.0802L13.0493 10.0628L13.028 10.042L12.9844 10.0045L12.9286 9.97389L12.9 9.96064L12.8898 9.95903L12.8847 9.95823L12.8858 9.95403L12.8777 9.94402L12.7639 9.8911L12.6303 9.85252L12.5089 9.82898L12.3883 9.82302L12.276 9.8271L12.1581 9.85212L12.0534 9.88798L11.9497 9.94144L11.8529 10.0091L11.8148 10.0337L11.784 10.0506L11.7234 10.0803L11.6598 10.1008L11.6034 10.1138L11.5568 10.2767L11.5316 10.3556L11.5083 10.4262L11.4425 10.5599L11.3738 10.6844L11.1402 11.0404L10.9179 11.3938L10.8139 11.5739L10.7263 11.7521L10.6466 11.9404L10.5834 12.1268L10.4599 12.509L10.362 12.8952L10.1891 13.6188L10.0315 14.2401L9.86366 14.9645L9.81682 15.1492L9.78634 15.3322L9.73857 15.7088L9.73432 15.7256L9.73219 15.734L9.73112 15.7382L9.73622 15.739L9.74004 15.7658L9.73578 15.7826L9.73365 15.791L9.73259 15.7952L9.73769 15.796L9.74151 15.8228L9.73181 15.8824L9.7219 15.942L9.68816 16.0545L9.66547 16.1644L9.65416 16.2718L9.65413 16.3766L9.66138 16.5786L9.67864 16.7821L9.73886 17.1933L9.77175 17.3775L9.81804 17.5507L9.87569 17.7214L9.95058 17.886L10.0334 18.0825L10.1062 18.2774L10.1614 18.4782L10.2012 18.6766L10.2208 18.8718L10.2279 18.969L10.2266 18.995L10.2315 19.0176L10.2412 19.0628L10.2599 19.4499L10.2546 19.6587L10.2444 19.7618L10.2403 19.8616L10.2239 19.9682L10.2136 20.0713L10.183 20.2761L10.0393 20.9475L9.96205 21.2933L9.88198 21.63L9.81704 21.886L9.77059 22.1319L9.69008 22.5122L9.60446 22.8916L9.40856 23.664L9.22757 24.3776L9.08916 24.9233L8.9071 25.6411L8.80787 26.0533L8.72394 26.4679L8.68007 26.6618L8.63322 26.8465L8.59863 26.9415L8.57 27.033L8.50785 27.2153L8.37316 27.4952L8.23049 27.7652L8.11699 27.9612L8.01996 28.1555L7.84929 28.5564L7.77938 28.7068L7.69003 28.8499L7.63505 28.9198L7.57516 28.9889L7.44702 29.1171L7.5795 28.7626L7.70987 28.3946L7.77213 28.2123L7.84555 28.0275L7.9974 27.6585L8.06901 27.4603L8.13532 27.2612L8.1926 27.0563L8.24073 26.8456L8.44302 26.048L8.62933 25.3134L8.82843 24.5284L8.91404 24.149L8.99669 23.7604L9.1405 22.9842L9.15265 22.8944L9.16587 22.8004L9.1821 22.6109L9.18089 22.4273L9.17671 22.2346L9.11946 21.8326L9.052 21.429L8.97506 21.0632L8.92045 20.6922L8.85659 20.3371L8.80219 19.9662L8.78003 19.823L8.7704 19.673L8.77078 19.5246L8.78254 19.3737L8.79153 19.1917L8.79033 19.0081L8.77601 18.9186L8.76765 18.8255L8.73582 18.6371L8.64689 18.2345L8.58666 17.8233L8.5642 17.6189L8.55811 17.4128L8.5684 17.2048L8.60132 16.9917L8.67589 16.5931L8.76162 16.1919L8.8074 16.0114L8.86446 15.8283L8.92448 15.6544L8.99577 15.4779L9.06729 15.2797L9.1337 15.0806L9.19001 14.8799L9.24218 14.6742L9.29021 14.4635L9.34971 14.2503L9.48203 13.7909L9.67261 13.0395L9.75748 12.6425L9.83205 12.2439L9.86646 12.066L9.91628 11.8905L9.9763 11.7166L10.0527 11.5409L10.1425 11.3543L10.2589 11.1674L10.3844 10.9864L10.5324 10.8003L10.5967 10.7144L10.6683 10.6209L10.7305 10.5216L10.8002 10.4147L10.8544 10.3054L10.9158 10.1885L10.9683 10.0658L11.0278 9.93549L10.8596 9.88707L10.6914 9.83866L10.5099 9.80124L10.3273 9.76803L10.2672 9.83713L10.2373 9.87168L10.2135 9.90286L10.0945 10.0369L10.0584 10.0748L10.0285 10.1094L9.96838 10.1785L9.83607 10.3235L9.78035 10.3758L9.73292 10.4163L9.68039 10.4561L9.63615 10.484L9.58181 10.5103L9.5345 10.5291L9.4352 10.5439L9.32996 10.5404L9.2749 10.5273L9.22707 10.5067L9.12439 10.4511L9.07061 10.4121L9.02407 10.3654L8.95627 10.298L8.91111 10.2253L8.88829 10.1475L8.89427 10.0611L8.896 9.99155L8.89773 9.92197L8.89329 9.85578L8.88628 9.84157L8.88543 9.82397L8.88375 9.78878L8.86983 9.76038L8.86271 9.74616L8.86187 9.72856L8.84785 9.70015L8.84083 9.68594L8.84009 9.66836L8.81088 9.61572L8.77774 9.55809L8.44416 9.49228L8.32064 9.47713L8.19711 9.46197L8.07656 9.45602L7.96005 9.45508L7.8414 9.46252L7.7268 9.47497L7.61016 9.49584L7.49747 9.52169L7.3702 9.5627L7.25325 9.60535L7.13926 9.65719L7.03549 9.71064L6.92968 9.77252L6.83291 9.84018L6.74008 9.91283L6.6617 9.99213Z" fill="#CE0026"/>
<path fill-rule="evenodd" clip-rule="evenodd" d="M11.2994 10.0571L11.2271 10.0282L11.161 9.99589L11.0278 9.93555L10.9683 10.0658L10.9158 10.1885L10.8544 10.3055L10.8002 10.4148L10.7305 10.5216L10.6683 10.621L10.5967 10.7144L10.5324 10.8003L10.3844 10.9865L10.2589 11.1675L10.1425 11.3543L10.0527 11.541L9.9763 11.7166L9.91628 11.8905L9.86646 12.066L9.83205 12.244L9.75748 12.6426L9.67261 13.0396L9.48203 13.791L9.34971 14.2503L9.29021 14.4636L9.24218 14.6743L9.19001 14.88L9.1337 15.0807L9.06729 15.2797L8.99577 15.478L8.92448 15.6545L8.86446 15.8284L8.80741 16.0114L8.76162 16.192L8.67589 16.5932L8.60132 16.9918L8.5684 17.2049L8.55811 17.4128L8.5642 17.619L8.58666 17.8234L8.64689 18.2346L8.73583 18.6372L8.76765 18.8256L8.77601 18.9186L8.79033 19.0082L8.79153 19.1918L8.78254 19.3737L8.77079 19.5247L8.77041 19.6731L8.78003 19.823L8.80219 19.9662L8.85659 20.3372L8.92045 20.6922L8.97506 21.0632L9.052 21.429L9.11946 21.8326L9.17671 22.2346L9.18089 22.4274L9.1821 22.6109L9.16587 22.8005L9.15265 22.8944L9.1405 22.9842L8.99669 23.7605L8.91404 24.1491L8.82843 24.5285L8.62934 25.3135L8.44302 26.0481L8.24073 26.8457L8.1926 27.0564L8.13533 27.2612L8.06902 27.4603L7.9974 27.6586L7.84555 28.0275L7.77213 28.2124L7.70987 28.3947L7.5795 28.7626L7.44702 29.1172L7.57516 28.989L7.63505 28.9199L7.69003 28.85L7.77938 28.7069L7.84929 28.5564L8.01996 28.1555L8.11699 27.9613L8.23049 27.7653L8.37316 27.4953L8.50785 27.2153L8.57 27.033L8.59863 26.9415L8.63322 26.8466L8.68007 26.6619L8.72394 26.468L8.80787 26.0534L8.9071 25.6412L9.08916 24.9233L9.22757 24.3776L9.40856 23.664L9.60446 22.8916L9.69008 22.5122L9.77059 22.132L9.81704 21.8861L9.88198 21.63L9.96205 21.2934L10.0393 20.9476L10.183 20.2761L10.2136 20.0714L10.2239 19.9682L10.2403 19.8617L10.2444 19.7619L10.2546 19.6587L10.2599 19.45L10.2412 19.0628L10.2315 19.0176L10.2266 18.995L10.2279 18.969L10.2208 18.8719L10.2012 18.6767L10.1614 18.4783L10.1062 18.2774L10.0334 18.0826L9.95058 17.8861L9.87569 17.7215L9.81804 17.5508L9.77175 17.3776L9.73887 17.1934L9.67864 16.7822L9.66138 16.5786L9.65413 16.3766L9.65417 16.2719L9.66547 16.1645L9.68816 16.0546L9.7219 15.942L9.73181 15.8825L9.74151 15.8229L9.73769 15.7961L9.73259 15.7953L9.73365 15.7911L9.73578 15.7827L9.74004 15.7659L9.73622 15.7391L9.73112 15.7383L9.73219 15.7341L9.73432 15.7257L9.73857 15.7089L9.78634 15.3322L9.81682 15.1493L9.86366 14.9646L10.0315 14.2402L10.1891 13.6189L10.362 12.8953L10.4599 12.5091L10.5834 12.1269L10.6466 11.9404L10.7263 11.7522L10.8139 11.5739L10.9179 11.3939L11.1402 11.0404L11.3738 10.6844L11.4425 10.5599L11.5083 10.4262L11.5316 10.3557L11.5568 10.2767L11.6034 10.1138L11.5594 10.12L11.5226 10.1185L11.4501 10.1114L11.3706 10.0901L11.2994 10.0571Z" fill="#DF777B"/>
<path fill-rule="evenodd" clip-rule="evenodd" d="M14.5156 10.6221L14.5656 10.7173L14.5907 10.765L14.6219 10.8092L14.667 10.9036L14.7182 10.9947L14.8031 11.1827L14.8881 11.3708L14.9157 11.4712L14.9383 11.5708L14.9556 11.6696L14.968 11.7676V11.8724L14.9649 11.968L14.9363 12.1643L14.8903 12.3666L14.8617 12.5629L14.8486 12.7617L14.8567 12.9594L14.8537 13.1598L14.8455 13.3593L14.8352 13.4625L14.8313 13.5623L14.8078 13.7594L14.7683 14.1243L14.7502 14.4882L14.737 14.5821L14.7306 14.6073L14.7274 14.6199L14.7304 14.6291L14.73 14.6727L14.7006 14.8514L14.6609 15.0286L14.6213 15.2057L14.5702 15.4072L14.5406 15.6077L14.5264 15.8106L14.5385 16.0134L14.5554 16.3653L14.5535 16.4567L14.5577 16.5447L14.5559 16.7191L14.5384 17.0394L14.5157 17.3589L14.4916 17.7262L14.4961 18.0849L14.4893 18.2585L14.4794 18.4228L14.4521 18.5932L14.4269 18.7551L14.2592 19.4795L14.0841 20.2115L13.9819 20.6145L13.8972 21.0116L13.8511 21.2138L13.8306 21.4202L13.8204 21.6281L13.8377 21.8317L14.1031 21.162L14.3695 20.4881L14.4966 20.1545L14.6298 19.8175L14.7569 19.484L14.8901 19.147L14.9522 18.9647L15.0207 18.7791L15.1438 18.4187L15.1987 18.244L15.2094 18.202L15.2262 18.1566L15.2598 18.0659L15.3708 17.7123L15.4672 17.3739L15.5087 17.2102L15.5564 17.0431L15.6383 16.7198L15.7203 16.3966L15.7484 16.2439L15.7626 16.1675L15.7828 16.0878L15.8379 15.7865L15.8588 15.6414L15.8859 15.4928L15.8927 15.424L15.8961 15.3897L15.9057 15.3519L15.9317 15.2075L15.959 14.9324L15.9854 14.6615L15.9993 14.3974L16.0111 14.1417L16.0055 13.8701L16.0001 13.5986L15.9912 13.4662L15.9869 13.4L15.9885 13.3304L15.9831 13.0589L15.9643 12.7983L15.9465 12.5335L15.9359 12.4707L15.9315 12.4045L15.9226 12.2721L15.912 12.2093L15.9076 12.1432L15.8987 12.0108L15.8775 11.8852L15.8668 11.8224L15.8624 11.7562L15.8412 11.6306L15.8306 11.5678L15.8261 11.5016L15.7837 11.2504L15.7465 11L15.6916 10.7556L15.6748 10.6962L15.6642 10.6334L15.643 10.5078L15.5873 10.2675L15.5324 10.0231L15.541 9.98951L15.5505 9.95173L15.5478 9.92073L15.541 9.88473L15.5036 9.84389L15.456 9.80144L15.399 9.77497L15.3472 9.74933L15.2413 9.70639L15.1811 9.69251L15.1272 9.67527L15.017 9.64911L14.8924 9.63816L14.7759 9.63721L14.646 9.64724L14.5794 9.65856L14.5191 9.66649L14.4391 9.68877L14.3704 9.70848L14.2441 9.76711L14.1237 9.84414L14.0195 9.94119L14.1476 10.1055L14.2758 10.2699L14.3331 10.3575L14.3967 10.4418L14.4218 10.4894L14.453 10.5336L14.5156 10.6221Z" fill="#95001B"/>
<path d="M7.95016 8.72006L7.96422 8.6437L8.00709 8.55879L8.07039 8.45527L8.114 8.38794L8.16888 8.31803L8.28682 8.18822L8.41264 8.06839L8.55907 7.95181L8.63724 7.89431L8.72677 7.83424L8.91392 7.7241L9.10914 7.62397L9.31966 7.52625L9.74571 7.35345L10.1807 7.18642L10.2936 7.13877L10.4087 7.08273L10.5033 7.02346L10.6011 6.9516L10.6775 6.88071L10.757 6.79723L10.8264 6.71214L10.8877 6.61705L10.9815 6.43539L11.0672 6.24374L11.1326 6.04887L11.195 5.84479L11.288 5.43599L11.334 5.23369L11.3862 5.028L11.4005 4.92984L11.4158 4.82748L11.4173 4.77969L11.425 4.72851L11.4353 4.62535L11.4332 4.42419L11.426 4.22222L11.3616 3.82782L11.2818 3.431L11.2255 3.23437L11.1968 3.13815L11.1743 3.03855L11.1395 2.94572L11.1108 2.84951L11.0484 2.65627L10.9634 2.4682L10.8734 2.27934L10.7658 2.09642L10.7045 2.00378L10.6493 1.90773L10.5908 1.82427L10.5559 1.73143L10.5324 1.63604L10.5273 1.53044L10.5314 1.43068L10.5539 1.32072L10.5879 1.2082L10.6453 1.0863L10.7607 1.09143L10.8751 1.10077L10.9862 1.12271L10.9954 1.12852L11.0107 1.13094L11.0413 1.13577L11.1015 1.14965L11.1391 1.16869L11.1829 1.18434L11.2673 1.22824L11.3028 1.25568L11.3445 1.27973L11.4256 1.33622L11.5846 1.48359L11.6605 1.56107L11.7426 1.63516L11.8932 1.79432L12.0378 1.95687L12.1003 2.04535L12.1638 2.12959L12.2151 2.22065L12.2725 2.30831L12.3123 2.40192L12.3574 2.49638L12.3611 2.52316L12.359 2.53156L12.3631 2.53656L12.3712 2.54659L12.3911 2.59339L12.4259 2.68621L12.4616 2.90141L12.4993 3.10821L12.5248 3.3218L12.5421 3.52538L12.5696 3.94013L12.6084 4.35229L12.6155 4.55426L12.6125 4.75462L12.6022 4.85778L12.5947 4.90898L12.593 4.95675L12.5696 5.15388L12.544 5.3594L12.546 5.56056L12.5696 5.76075L12.6156 5.95577L12.8103 6.71566L12.8666 6.91229L12.9505 7.10456L13.0519 7.29086L13.187 7.46938L13.2496 7.55786L13.3243 7.63952L13.4873 7.79189L13.6627 7.93749L13.757 8.00479L13.8639 8.06533L13.9581 8.13262L14.0587 8.19654L14.2475 8.33116L14.4229 8.47676L14.5048 8.55083L14.593 8.62153L14.7397 8.77568L14.8926 8.92646L15.1949 9.24056L15.2595 9.32063L15.2868 9.35987L15.3201 9.39569L15.3745 9.47414L15.4239 9.5518L15.4608 9.63622L15.4937 9.71564L15.5036 9.76086L15.5083 9.78345L15.5195 9.80267L15.541 9.88467" stroke="#030904" stroke-width="0.5" stroke-miterlimit="10" stroke-linecap="square"/>
<path d="M7.95017 8.71997L7.74177 8.80929L7.54453 8.91783L7.44362 8.98047L7.34685 9.04813L7.16139 9.19347L6.96955 9.36399L6.78875 9.55372L6.69878 9.65738L6.60773 9.76525L6.43883 9.99178L6.27077 10.2359L6.12418 10.479L5.99823 10.7036L5.9378 10.8163L5.88865 10.9264L5.79331 11.1559L5.7103 11.3785L5.63537 11.6112L5.57575 11.8463L5.52633 12.0829L5.49435 12.3137L5.46535 12.5536L5.45165 12.7959L5.44815 13.0398L5.46507 13.287L5.46991 13.4144L5.48602 13.5392L5.52335 13.7896L5.57088 14.0416L5.63882 14.2968L5.77555 14.8249L5.91844 15.3496L6.049 15.881L6.18063 16.4083L6.29992 16.9423L6.42027 17.4722L6.53446 18.0054L6.55875 18.1402L6.589 18.2716L6.64971 18.5344L6.85055 19.6053L6.94209 20.1437L6.98536 20.4125L7.0348 20.6779L7.07191 20.9501L7.11518 21.2189L7.19662 21.7557L7.26573 22.2992L7.34101 22.8394L7.33398 23.1396L7.32781 23.4355L7.31261 23.7256L7.28826 24.0099L7.25275 24.2968L7.20906 24.5737L7.15506 24.849L7.09202 25.1184" stroke="#030904" stroke-width="0.5" stroke-miterlimit="10" stroke-linecap="square"/>
<path d="M15.5411 9.88457L15.5037 9.84373L15.456 9.80128L15.3991 9.77481L15.3473 9.74917L15.2413 9.70622L15.1812 9.69235L15.1273 9.6751L15.017 9.64895L14.8925 9.638L14.7759 9.63705L14.646 9.64708L14.5795 9.65839L14.5192 9.66633L14.4391 9.68861L14.3705 9.70832L14.2441 9.76694L14.1238 9.84398L14.0195 9.94102L13.9347 10.0455L13.8702 10.1532L13.8381 10.1962L13.8092 10.2265L13.77 10.2553L13.7341 10.2714L13.6356 10.3039L13.5465 10.3204L13.4647 10.3293L13.3922 10.3222L13.3219 10.3067L13.2619 10.271L13.204 10.227L13.1607 10.1677L13.0767 10.0802L13.0493 10.0628L13.0281 10.042L12.9845 10.0045L12.9287 9.97385L12.9001 9.9606L12.8899 9.95898L12.8848 9.95818L12.8859 9.95398L12.8778 9.94397L12.7639 9.89105L12.6303 9.85248L12.5089 9.82893L12.3884 9.82297L12.276 9.82705L12.1581 9.85208L12.0535 9.88794L11.9497 9.94139L11.8529 10.0091L11.8149 10.0337L11.784 10.0506L11.7234 10.0803L11.6598 10.1008L11.6035 10.1138L11.5595 10.1199L11.5227 10.1185L11.4502 10.1114L11.3707 10.0901L11.2995 10.057L11.2272 10.0281L11.1611 9.99578L11.0279 9.93544L10.8596 9.88702L10.6915 9.83862L10.5099 9.80119L10.3274 9.76798L10.2673 9.83708L10.2373 9.87163L10.2136 9.90281L10.0946 10.0369L10.0584 10.0748L10.0285 10.1094L9.96846 10.1785L9.83615 10.3235L9.78043 10.3758L9.73301 10.4163L9.68047 10.4561L9.63624 10.484L9.58189 10.5103L9.53458 10.5291L9.43529 10.5439L9.33005 10.5404L9.27497 10.5273L9.22715 10.5067L9.12448 10.4511L9.07069 10.4121L9.02415 10.3654L8.95636 10.298L8.91119 10.2253L8.88836 10.1475L8.89435 10.0611L8.89608 9.9915L8.89781 9.92192L8.89336 9.85573L8.88636 9.84152L8.88552 9.82392L8.88383 9.78873L8.86991 9.76033L8.86279 9.74611L8.86195 9.72852L8.84793 9.7001L8.84092 9.6859L8.84018 9.66831L8.81097 9.61567L8.77781 9.55804L8.72723 9.50639L8.70895 9.49477L8.69991 9.48897L8.69685 9.47976L8.67262 9.44973L8.61075 9.40066L8.55008 9.34741L8.36419 9.22199L8.2052 9.07462L8.12934 8.99714L8.06686 8.90868L7.9502 8.71997" stroke="#030904" stroke-width="0.5" stroke-miterlimit="10" stroke-linecap="square"/>
<path d="M8.77637 31.1784L9.05694 30.8254L9.33455 30.4632L9.60705 30.1002L9.87551 29.7323L10.1339 29.3627L10.3881 28.9881L10.632 28.6119L10.8721 28.2307L11.0967 27.847L11.3173 27.4584L11.5328 27.0689L11.7455 26.6703L11.9467 26.2742L12.1388 25.8723L12.3269 25.4655L12.511 25.0536L12.8432 24.246L13.0087 23.8443L13.0915 23.6434L13.1805 23.4392L13.5065 22.635L13.8377 21.8315L14.103 21.1618L14.3695 20.4879L14.4966 20.1543L14.6298 19.8174L14.7568 19.4838L14.8901 19.1468L14.9522 18.9646L15.0206 18.7789L15.1438 18.4185L15.1987 18.2438L15.2093 18.2018L15.2262 18.1565L15.2598 18.0657L15.3708 17.7122L15.4671 17.3737L15.5087 17.21L15.5564 17.0429L15.6383 16.7197L15.7203 16.3965L15.7484 16.2437L15.7626 16.1674L15.7828 16.0876L15.8379 15.7864L15.8588 15.6412L15.8859 15.4927L15.8927 15.4239L15.8961 15.3895L15.9057 15.3517L15.9317 15.2074L15.959 14.9323L15.9854 14.6614L15.9993 14.3973L16.0111 14.1415L16.0055 13.87L16.0001 13.5984L15.9912 13.466L15.9869 13.3999L15.9885 13.3303L15.9831 13.0587L15.9643 12.7981L15.9465 12.5334L15.9359 12.4706L15.9315 12.4044L15.9226 12.272L15.912 12.2092L15.9076 12.143L15.8987 12.0106L15.8774 11.885L15.8668 11.8222L15.8624 11.756L15.8412 11.6304L15.8306 11.5676L15.8261 11.5014L15.7837 11.2502L15.7465 10.9998L15.6916 10.7554L15.6748 10.696L15.6642 10.6332L15.643 10.5076L15.5873 10.2674L15.5324 10.023L15.5409 9.98942L15.5505 9.95164L15.5478 9.92064L15.541 9.88464" stroke="#030904" stroke-width="0.5" stroke-miterlimit="10" stroke-linecap="square"/>
<path d="M8.77635 31.1784L8.36049 31.6672L8.15055 31.9091L7.94284 32.1426L7.72375 32.3786L7.51179 32.6071L7.08405 33.0591L6.71448 33.4285L6.3428 33.7846L5.96612 34.1398L5.58753 34.4817L5.47982 34.5301L5.3853 34.5676L5.29811 34.5975L5.22433 34.6164L5.15267 34.6269L5.09335 34.6306L5.03616 34.6259L4.99853 34.6069L4.9558 34.587L4.93264 34.5528L4.91161 34.5102L4.90397 34.4566L4.8974 34.3988L4.90934 34.3308L4.9234 34.2545L4.95086 34.1671L6.00922 29.785L7.06036 25.4104" stroke="#030904" stroke-width="0.5" stroke-miterlimit="10" stroke-linecap="square"/>
<path d="M7.09204 25.1187L7.1018 25.1639L7.1137 25.2007L7.06046 25.4106" stroke="#030904" stroke-width="0.5" stroke-miterlimit="10" stroke-linecap="square"/>
<path d="M7.09204 25.1187L7.06046 25.4106" stroke="#030904" stroke-width="0.5" stroke-miterlimit="10" stroke-linecap="square"/>
</svg>
