<svg width="10" height="10" viewBox="0 0 10 10" fill="none" xmlns="http://www.w3.org/2000/svg">
<path d="M6.34474 4.62855L5.58542 5.42904L9.18657 9.22541L8.45181 10L4.85066 6.20363L1.24951 10L0.514749 9.22541L5.60998 3.85397C5.41384 3.44078 5.38527 2.95872 5.52428 2.40781C5.66328 1.85689 5.93677 1.36621 6.34474 0.935755C6.85095 0.4021 7.4143 0.096524 8.03479 0.0190282C8.65527 -0.0584675 9.1533 0.100748 9.52887 0.496674C9.90443 0.8926 10.0555 1.42203 9.98195 2.08497C9.90844 2.74791 9.61858 3.3462 9.11236 3.87986C8.70405 4.31031 8.2386 4.5944 7.71601 4.73213C7.19342 4.86986 6.73616 4.83533 6.34422 4.62855H6.34474ZM2.81727 5.63563L0.612473 3.31131C0.204158 2.88086 0 2.36428 0 1.76158C0 1.15888 0.204158 0.6423 0.612473 0.211849L4.28679 4.05946L2.81727 5.63563Z" fill="#F03C03"/>
</svg>
